<svg width="413" height="284" viewBox="0 0 413 284" fill="none" xmlns="http://www.w3.org/2000/svg">
<path d="M45.9914 9.40518L27.0123 20.7926C10.254 30.8476 0 48.9581 0 68.5015V284H390L412.083 53.7104C414.621 27.2404 386.712 8.56418 363.211 21.006L355.34 25.1728C343.087 31.6598 327.896 26.7916 321.695 14.3908C314.341 -0.31699 294.937 -3.86527 282.854 7.28822L265.532 23.2781C251.606 36.133 230.842 38.1891 214.665 28.3149L191.718 14.3087C176.863 5.2408 157.485 9.69057 148.073 24.3311C135.184 44.3812 105.694 43.8393 93.5502 23.3293L92.2359 21.1095C82.7331 5.06029 61.985 -0.190996 45.9914 9.40518Z" fill="#FF4E4E"/>
</svg>
