<svg width="390" height="266" viewBox="0 0 390 266" fill="none" xmlns="http://www.w3.org/2000/svg">
<path d="M390 266V44.7257C390 21.7354 366.924 5.90661 345.476 14.1849C337.479 17.2712 328.591 17.0982 320.721 13.7032L306.686 7.64891C290.93 0.852334 273.07 0.852343 257.314 7.64892L256.449 8.02207C240.296 14.99 221.905 14.5535 206.101 6.827C193.133 0.487016 178.32 -0.988511 164.356 2.66873L126.744 12.5194C110.673 16.7285 93.6756 15.6702 78.2506 9.50025L66.5322 4.81287C54.0713 -0.171499 40.1023 0.228714 27.9472 5.91834C10.8943 13.9005 0 31.0287 0 49.8573V266H390Z" fill="#A2D2FF"/>
</svg>
